<?xml version="1.0" encoding="UTF-8" standalone="no"?>
<!DOCTYPE svg PUBLIC "-//W3C//DTD SVG 1.1//EN"
 "http://www.w3.org/Graphics/SVG/1.1/DTD/svg11.dtd">
<!-- Generated by graphviz version 2.47.0 (20210316.0004)
 -->
<!-- Title: dependencies Pages: 1 -->
<svg width="1611pt" height="211pt"
 viewBox="0.00 0.00 1611.00 211.00" xmlns="http://www.w3.org/2000/svg" xmlns:xlink="http://www.w3.org/1999/xlink">
<g id="graph0" class="graph" transform="scale(1 1) rotate(0) translate(4 207)">
<title>dependencies</title>
<polygon fill="white" stroke="transparent" points="-4,4 -4,-207 1607,-207 1607,4 -4,4"/>
<text text-anchor="start" x="780.51" y="-42.4" font-family="Times-12" font-weight="bold" font-size="14.00">Legend</text>
<polygon fill="#ffffb3" stroke="transparent" points="567.5,-10 567.5,-30 587.5,-30 587.5,-10 567.5,-10"/>
<text text-anchor="start" x="591.13" y="-15.4" font-family="Times-12" font-size="14.00"> &#160;Declarations</text>
<polygon fill="#8dd3c7" stroke="transparent" points="680.5,-10 680.5,-30 700.5,-30 700.5,-10 680.5,-10"/>
<text text-anchor="start" x="704.23" y="-15.4" font-family="Times-12" font-size="14.00"> &#160;Module</text>
<polygon fill="#80b1d3" stroke="transparent" points="766.5,-10 766.5,-30 786.5,-30 786.5,-10 766.5,-10"/>
<text text-anchor="start" x="790.28" y="-15.4" font-family="Times-12" font-size="14.00"> &#160;Bootstrap</text>
<polygon fill="#fdb462" stroke="transparent" points="863.5,-10 863.5,-30 883.5,-30 883.5,-10 863.5,-10"/>
<text text-anchor="start" x="887.17" y="-15.4" font-family="Times-12" font-size="14.00"> &#160;Providers</text>
<polygon fill="#fb8072" stroke="transparent" points="959.5,-10 959.5,-30 979.5,-30 979.5,-10 959.5,-10"/>
<text text-anchor="start" x="983.23" y="-15.4" font-family="Times-12" font-size="14.00"> &#160;Exports</text>
<g id="clust1" class="cluster">
<title>cluster_AppModule</title>
<polygon fill="none" stroke="black" stroke-dasharray="1,5" points="8,-70 8,-195 1595,-195 1595,-70 8,-70"/>
</g>
<g id="clust6" class="cluster">
<title>cluster_AppModule_providers</title>
<polygon fill="none" stroke="black" points="1457,-78 1457,-130 1587,-130 1587,-78 1457,-78"/>
</g>
<g id="clust3" class="cluster">
<title>cluster_AppModule_imports</title>
<polygon fill="none" stroke="black" points="16,-78 16,-130 1449,-130 1449,-78 16,-78"/>
</g>
<!-- AuthModule -->
<g id="node1" class="node">
<title>AuthModule</title>
<polygon fill="#8dd3c7" stroke="black" points="1440.55,-122 1437.55,-126 1416.55,-126 1413.55,-122 1353.45,-122 1353.45,-86 1440.55,-86 1440.55,-122"/>
<text text-anchor="middle" x="1397" y="-99.8" font-family="Times,serif" font-size="14.00">AuthModule</text>
</g>
<!-- AppModule -->
<g id="node13" class="node">
<title>AppModule</title>
<polygon fill="#8dd3c7" stroke="black" points="847.66,-187 844.66,-191 823.66,-191 820.66,-187 764.34,-187 764.34,-151 847.66,-151 847.66,-187"/>
<text text-anchor="middle" x="806" y="-164.8" font-family="Times,serif" font-size="14.00">AppModule</text>
</g>
<!-- AuthModule&#45;&gt;AppModule -->
<g id="edge1" class="edge">
<title>AuthModule&#45;&gt;AppModule</title>
<path fill="none" stroke="black" d="M1397,-122.04C1397,-143.66 1397,-177 1397,-177 1397,-177 858.03,-177 858.03,-177"/>
<polygon fill="black" stroke="black" points="858.03,-173.5 848.03,-177 858.03,-180.5 858.03,-173.5"/>
</g>
<!-- CompanyModule -->
<g id="node2" class="node">
<title>CompanyModule</title>
<polygon fill="#8dd3c7" stroke="black" points="1334.99,-122 1331.99,-126 1310.99,-126 1307.99,-122 1221.01,-122 1221.01,-86 1334.99,-86 1334.99,-122"/>
<text text-anchor="middle" x="1278" y="-99.8" font-family="Times,serif" font-size="14.00">CompanyModule</text>
</g>
<!-- CompanyModule&#45;&gt;AppModule -->
<g id="edge2" class="edge">
<title>CompanyModule&#45;&gt;AppModule</title>
<path fill="none" stroke="black" d="M1278,-122.22C1278,-142.37 1278,-172 1278,-172 1278,-172 857.89,-172 857.89,-172"/>
<polygon fill="black" stroke="black" points="857.89,-168.5 847.89,-172 857.89,-175.5 857.89,-168.5"/>
</g>
<!-- DatabasesModule -->
<g id="node3" class="node">
<title>DatabasesModule</title>
<polygon fill="#8dd3c7" stroke="black" points="1203.29,-122 1200.29,-126 1179.29,-126 1176.29,-122 1086.71,-122 1086.71,-86 1203.29,-86 1203.29,-122"/>
<text text-anchor="middle" x="1145" y="-99.8" font-family="Times,serif" font-size="14.00">DatabasesModule</text>
</g>
<!-- DatabasesModule&#45;&gt;AppModule -->
<g id="edge3" class="edge">
<title>DatabasesModule&#45;&gt;AppModule</title>
<path fill="none" stroke="black" d="M1145,-122.22C1145,-140.83 1145,-167 1145,-167 1145,-167 857.91,-167 857.91,-167"/>
<polygon fill="black" stroke="black" points="857.91,-163.5 847.91,-167 857.91,-170.5 857.91,-163.5"/>
</g>
<!-- FilesModule -->
<g id="node4" class="node">
<title>FilesModule</title>
<polygon fill="#8dd3c7" stroke="black" points="1068.27,-122 1065.27,-126 1044.27,-126 1041.27,-122 981.73,-122 981.73,-86 1068.27,-86 1068.27,-122"/>
<text text-anchor="middle" x="1025" y="-99.8" font-family="Times,serif" font-size="14.00">FilesModule</text>
</g>
<!-- FilesModule&#45;&gt;AppModule -->
<g id="edge4" class="edge">
<title>FilesModule&#45;&gt;AppModule</title>
<path fill="none" stroke="black" d="M1025,-122.03C1025,-139.06 1025,-162 1025,-162 1025,-162 857.71,-162 857.71,-162"/>
<polygon fill="black" stroke="black" points="857.71,-158.5 847.71,-162 857.71,-165.5 857.71,-158.5"/>
</g>
<!-- HealthModule -->
<g id="node5" class="node">
<title>HealthModule</title>
<polygon fill="#8dd3c7" stroke="black" points="963.37,-122 960.37,-126 939.37,-126 936.37,-122 866.63,-122 866.63,-86 963.37,-86 963.37,-122"/>
<text text-anchor="middle" x="915" y="-99.8" font-family="Times,serif" font-size="14.00">HealthModule</text>
</g>
<!-- HealthModule&#45;&gt;AppModule -->
<g id="edge5" class="edge">
<title>HealthModule&#45;&gt;AppModule</title>
<path fill="none" stroke="black" d="M915,-122.24C915,-137.57 915,-157 915,-157 915,-157 857.83,-157 857.83,-157"/>
<polygon fill="black" stroke="black" points="857.83,-153.5 847.83,-157 857.83,-160.5 857.83,-153.5"/>
</g>
<!-- JobsModule -->
<g id="node6" class="node">
<title>JobsModule</title>
<polygon fill="#8dd3c7" stroke="black" points="848.44,-122 845.44,-126 824.44,-126 821.44,-122 763.56,-122 763.56,-86 848.44,-86 848.44,-122"/>
<text text-anchor="middle" x="806" y="-99.8" font-family="Times,serif" font-size="14.00">JobsModule</text>
</g>
<!-- JobsModule&#45;&gt;AppModule -->
<g id="edge6" class="edge">
<title>JobsModule&#45;&gt;AppModule</title>
<path fill="none" stroke="black" d="M806,-122.11C806,-122.11 806,-140.99 806,-140.99"/>
<polygon fill="black" stroke="black" points="802.5,-140.99 806,-150.99 809.5,-140.99 802.5,-140.99"/>
</g>
<!-- MailModule -->
<g id="node7" class="node">
<title>MailModule</title>
<polygon fill="#8dd3c7" stroke="black" points="745.99,-122 742.99,-126 721.99,-126 718.99,-122 660.01,-122 660.01,-86 745.99,-86 745.99,-122"/>
<text text-anchor="middle" x="703" y="-99.8" font-family="Times,serif" font-size="14.00">MailModule</text>
</g>
<!-- MailModule&#45;&gt;AppModule -->
<g id="edge7" class="edge">
<title>MailModule&#45;&gt;AppModule</title>
<path fill="none" stroke="black" d="M703,-122.24C703,-137.57 703,-157 703,-157 703,-157 754.11,-157 754.11,-157"/>
<polygon fill="black" stroke="black" points="754.11,-160.5 764.11,-157 754.11,-153.5 754.11,-160.5"/>
</g>
<!-- PermissionsModule -->
<g id="node8" class="node">
<title>PermissionsModule</title>
<polygon fill="#8dd3c7" stroke="black" points="641.71,-122 638.71,-126 617.71,-126 614.71,-122 514.29,-122 514.29,-86 641.71,-86 641.71,-122"/>
<text text-anchor="middle" x="578" y="-99.8" font-family="Times,serif" font-size="14.00">PermissionsModule</text>
</g>
<!-- PermissionsModule&#45;&gt;AppModule -->
<g id="edge8" class="edge">
<title>PermissionsModule&#45;&gt;AppModule</title>
<path fill="none" stroke="black" d="M578,-122.03C578,-139.06 578,-162 578,-162 578,-162 754.18,-162 754.18,-162"/>
<polygon fill="black" stroke="black" points="754.18,-165.5 764.18,-162 754.18,-158.5 754.18,-165.5"/>
</g>
<!-- ResumesModule -->
<g id="node9" class="node">
<title>ResumesModule</title>
<polygon fill="#8dd3c7" stroke="black" points="496.1,-122 493.1,-126 472.1,-126 469.1,-122 385.9,-122 385.9,-86 496.1,-86 496.1,-122"/>
<text text-anchor="middle" x="441" y="-99.8" font-family="Times,serif" font-size="14.00">ResumesModule</text>
</g>
<!-- ResumesModule&#45;&gt;AppModule -->
<g id="edge9" class="edge">
<title>ResumesModule&#45;&gt;AppModule</title>
<path fill="none" stroke="black" d="M441,-122.22C441,-140.83 441,-167 441,-167 441,-167 754.13,-167 754.13,-167"/>
<polygon fill="black" stroke="black" points="754.13,-170.5 764.13,-167 754.13,-163.5 754.13,-170.5"/>
</g>
<!-- RolesModule -->
<g id="node10" class="node">
<title>RolesModule</title>
<polygon fill="#8dd3c7" stroke="black" points="367.94,-122 364.94,-126 343.94,-126 340.94,-122 276.06,-122 276.06,-86 367.94,-86 367.94,-122"/>
<text text-anchor="middle" x="322" y="-99.8" font-family="Times,serif" font-size="14.00">RolesModule</text>
</g>
<!-- RolesModule&#45;&gt;AppModule -->
<g id="edge10" class="edge">
<title>RolesModule&#45;&gt;AppModule</title>
<path fill="none" stroke="black" d="M322,-122.22C322,-142.37 322,-172 322,-172 322,-172 754.32,-172 754.32,-172"/>
<polygon fill="black" stroke="black" points="754.32,-175.5 764.32,-172 754.32,-168.5 754.32,-175.5"/>
</g>
<!-- SubscribersModule -->
<g id="node11" class="node">
<title>SubscribersModule</title>
<polygon fill="#8dd3c7" stroke="black" points="258.36,-122 255.36,-126 234.36,-126 231.36,-122 133.64,-122 133.64,-86 258.36,-86 258.36,-122"/>
<text text-anchor="middle" x="196" y="-99.8" font-family="Times,serif" font-size="14.00">SubscribersModule</text>
</g>
<!-- SubscribersModule&#45;&gt;AppModule -->
<g id="edge11" class="edge">
<title>SubscribersModule&#45;&gt;AppModule</title>
<path fill="none" stroke="black" d="M196,-122.04C196,-143.66 196,-177 196,-177 196,-177 754.07,-177 754.07,-177"/>
<polygon fill="black" stroke="black" points="754.07,-180.5 764.07,-177 754.07,-173.5 754.07,-180.5"/>
</g>
<!-- UsersModule -->
<g id="node12" class="node">
<title>UsersModule</title>
<polygon fill="#8dd3c7" stroke="black" points="115.92,-122 112.92,-126 91.92,-126 88.92,-122 24.08,-122 24.08,-86 115.92,-86 115.92,-122"/>
<text text-anchor="middle" x="70" y="-99.8" font-family="Times,serif" font-size="14.00">UsersModule</text>
</g>
<!-- UsersModule&#45;&gt;AppModule -->
<g id="edge12" class="edge">
<title>UsersModule&#45;&gt;AppModule</title>
<path fill="none" stroke="black" d="M70,-122.09C70,-145.13 70,-182 70,-182 70,-182 754.32,-182 754.32,-182"/>
<polygon fill="black" stroke="black" points="754.32,-185.5 764.32,-182 754.32,-178.5 754.32,-185.5"/>
</g>
<!-- AppService -->
<g id="node14" class="node">
<title>AppService</title>
<ellipse fill="#fdb462" stroke="black" cx="1522" cy="-104" rx="56.74" ry="18"/>
<text text-anchor="middle" x="1522" y="-99.8" font-family="Times,serif" font-size="14.00">AppService</text>
</g>
<!-- AppService&#45;&gt;AppModule -->
<g id="edge13" class="edge">
<title>AppService&#45;&gt;AppModule</title>
<path fill="none" stroke="black" d="M1522,-122.09C1522,-145.13 1522,-182 1522,-182 1522,-182 857.85,-182 857.85,-182"/>
<polygon fill="black" stroke="black" points="857.85,-178.5 847.85,-182 857.85,-185.5 857.85,-178.5"/>
</g>
</g>
</svg>
